All the videos except Gretchen Wilson (which is from a SD broadcast as there was no HD in 2005) are 720p. Some of the MP3's are 320 and some are only 112. There are a couple of info files in the torrent. Hope these are enjoyed and shared by all. Don't hit and run.  ********************************************************************************************************************							 C_Ferguson_Nellie_McKay_SONG_ONLY_20101211.avi
Format                           : AVI
Format/Info                      : Audio Video Interleave
File size                        : 111 MiB
Duration                         : 6mn 55s
Overall bit rate                 : 2 243 Kbps
Movie name                       : C_Ferguson_Nellie_McKay_SONG_ONLY_20101211.mpg
Director                         : created.with.SUPER(C).v2010.bld.37
Writing application              : SUPER(C)   

Video
ID                               : 0
Format                           : MPEG-4 Visual
Format profile                   : Simple@L3
Format settings, BVOP            : No
Format settings, QPel            : No
Format settings, GMC             : No warppoints
Format settings, Matrix          : Default (H.263)
Codec ID                         : XVID
Codec ID/Hint                    : XviD
Duration                         : 3mn 27s
Bit rate                         : 4 361 Kbps
Width                            : 1 280 pixels
Height                           : 720 pixels
Display aspect ratio             : 16:9
Frame rate                       : 29.970 fps
Color space                      : YUV
Chroma subsampling               : 4:2:0
Bit depth                        : 8 bits
Scan type                        : Progressive
Bits/(Pixel*Frame)               : 0.158
Stream size                      : 108 MiB (97%)
Writing library                  : XviD 1.1.2 (UTC 2006-11-01)

Audio
ID                               : 1
Format                           : MPEG Audio
Format version                   : Version 2
Format profile                   : Layer 3
Mode                             : Joint stereo
Mode extension                   : MS Stereo
Codec ID                         : 55
Codec ID/Hint                    : MP3
Duration                         : 6mn 55s
Bit rate mode                    : Constant
Bit rate                         : 112 Kbps
Channel(s)                       : 2 channels
Sampling rate                    : 22.05 KHz
Stream size                      : 2.77 MiB (2%)
Alignment                        : Aligned on interleaves
Interleave, duration             : 26 ms (0.78 video frame)
Writing library                  : LAME3.98